<svg width="88" height="95" viewBox="0 0 88 95" fill="none" xmlns="http://www.w3.org/2000/svg">
<g id="timer_150dp_FFFFFF_FILL0_wght100_GRAD0_opsz48 1">
<path id="Vector" d="M34.6857 8.70836V6.53127H52.9413V8.70836H34.6857ZM42.8094 53.0417H44.8175V33.5469H42.8094V53.0417ZM43.8135 81.9375C39.919 81.9375 36.2678 81.1294 32.8601 79.5131C29.4524 77.8967 26.4706 75.7197 23.9149 72.9818C21.3591 70.244 19.351 67.0113 17.8905 63.2839C16.4301 59.5565 15.6998 55.5981 15.6998 51.4089C15.6998 47.2197 16.4301 43.2778 17.8905 39.5834C19.351 35.8889 21.3591 32.6563 23.9149 29.8854C26.4706 27.1146 29.4524 24.9375 32.8601 23.3542C36.2678 21.7709 39.919 20.9792 43.8135 20.9792C47.4038 20.9792 50.8419 21.6884 54.1279 23.1068C57.4139 24.5252 60.3653 26.5209 62.9819 29.0938L66.4505 25.2344L67.9109 26.8177L64.3511 30.6771C66.6634 33.316 68.5042 36.4002 69.8734 39.9297C71.2426 43.4592 71.9271 47.3021 71.9271 51.4584C71.9271 55.6146 71.1969 59.5565 69.7365 63.2839C68.276 67.0113 66.2679 70.244 63.7121 72.9818C61.1563 75.7197 58.1746 77.8967 54.7669 79.5131C51.3591 81.1294 47.708 81.9375 43.8135 81.9375ZM43.8007 79.7605C51.0506 79.7605 57.2162 77.0107 62.2973 71.5113C67.3785 66.0118 69.919 59.3322 69.919 51.4722C69.919 43.6123 67.3827 36.928 62.3101 31.4193C57.2375 25.9106 51.0762 23.1563 43.8263 23.1563C36.5764 23.1563 30.4108 25.906 25.3297 31.4054C20.2485 36.9049 17.7079 43.5846 17.7079 51.4445C17.7079 59.3044 20.2443 65.9888 25.3169 71.4974C30.3895 77.0061 36.5508 79.7605 43.8007 79.7605Z" fill="white"/>
</g>
</svg>
