<svg width="100" height="100" viewBox="0 0 100 100" fill="none" xmlns="http://www.w3.org/2000/svg">
<g id="frame_inspect_150dp_FFFFFF_FILL0_wght100_GRAD0_opsz48 1">
<path id="Vector" d="M45.8135 58.2292C49.2295 58.2292 52.1528 57.0205 54.5833 54.6031C57.0139 52.1851 58.2292 49.2684 58.2292 45.8531C58.2292 42.4372 57.0205 39.5139 54.6031 37.0834C52.1858 34.6528 49.2691 33.4375 45.8531 33.4375C42.4371 33.4375 39.5139 34.6462 37.0833 37.0636C34.6528 39.4809 33.4375 42.3976 33.4375 45.8136C33.4375 49.2295 34.6462 52.1528 37.0635 54.5834C39.4816 57.0139 42.3983 58.2292 45.8135 58.2292ZM67.0833 68.75L55.4167 56.9792C54.0278 58.0903 52.5233 58.9584 50.9031 59.5834C49.283 60.2084 47.6094 60.5209 45.8823 60.5209C41.7524 60.5209 38.2639 59.0972 35.4167 56.25C32.5694 53.4028 31.1458 49.9306 31.1458 45.8334C31.1458 41.7361 32.5694 38.2639 35.4167 35.4167C38.2639 32.5695 41.7361 31.1459 45.8333 31.1459C49.9305 31.1459 53.4028 32.5695 56.25 35.4167C59.0972 38.2639 60.5208 41.7524 60.5208 45.8823C60.5208 47.6094 60.2083 49.283 59.5833 50.9031C58.9583 52.5233 58.0903 54.0278 56.9792 55.4167L68.75 67.0834L67.0833 68.75ZM23.5417 82.0834C21.9604 82.0834 20.6274 81.5413 19.5427 80.4573C18.4587 79.3726 17.9167 78.0396 17.9167 76.4584V62.7084H20.2083V76.4584C20.2083 77.2917 20.5555 78.0556 21.25 78.75C21.9444 79.4445 22.7083 79.7917 23.5417 79.7917H37.2917V82.0834H23.5417ZM62.7083 82.0834V79.7917H76.4583C77.2917 79.7917 78.0555 79.4445 78.75 78.75C79.4444 78.0556 79.7917 77.2917 79.7917 76.4584V62.7084H82.0833V76.4584C82.0833 78.0396 81.5413 79.3726 80.4573 80.4573C79.3733 81.5413 78.0403 82.0834 76.4583 82.0834H62.7083ZM17.9167 37.2917V23.5417C17.9167 21.9597 18.4587 20.6268 19.5427 19.5427C20.6274 18.4587 21.9604 17.9167 23.5417 17.9167H37.2917V20.2084H23.5417C22.7083 20.2084 21.9444 20.5556 21.25 21.25C20.5555 21.9445 20.2083 22.7084 20.2083 23.5417V37.2917H17.9167ZM79.7917 37.2917V23.5417C79.7917 22.7084 79.4444 21.9445 78.75 21.25C78.0555 20.5556 77.2917 20.2084 76.4583 20.2084H62.7083V17.9167H76.4583C78.0403 17.9167 79.3733 18.4587 80.4573 19.5427C81.5413 20.6268 82.0833 21.9597 82.0833 23.5417V37.2917H79.7917Z" fill="white"/>
</g>
</svg>
