<svg width="100" height="100" viewBox="0 0 100 100" fill="none" xmlns="http://www.w3.org/2000/svg">
<g id="scoreboard_150dp_FFFFFF_FILL0_wght400_GRAD0_opsz48 1">
<path id="Vector" d="M61.875 60.625C61.25 60.625 60.7118 60.3993 60.2604 59.9479C59.809 59.4965 59.5833 58.9583 59.5833 58.3333V41.6667C59.5833 41.0625 59.809 40.5122 60.2604 40.0156C60.7118 39.5191 61.25 39.2708 61.875 39.2708H72.2917C72.8958 39.2708 73.4462 39.5191 73.9427 40.0156C74.4392 40.5122 74.6875 41.0625 74.6875 41.6667V58.3333C74.6875 58.9583 74.4392 59.4965 73.9427 59.9479C73.4462 60.3993 72.8958 60.625 72.2917 60.625H61.875ZM62.1875 58.0208H72.0833V41.875H62.1875V58.0208ZM25.3125 60.625V51.1458C25.3125 50.5208 25.6302 49.9132 26.2656 49.3229C26.901 48.7326 27.5208 48.4375 28.125 48.4375H37.8125V41.875H25.3125V39.2708H38.125C38.75 39.2708 39.2882 39.5191 39.7396 40.0156C40.191 40.5122 40.4167 41.0625 40.4167 41.6667V48.8542C40.4167 49.4792 40.1215 50.0868 39.5313 50.6771C38.941 51.2674 38.3333 51.5625 37.7083 51.5625H27.9167V58.0208H40.4167V60.625H25.3125ZM48.75 45V42.0833H51.3542V45H48.75ZM48.75 58.5417V55.625H51.3542V58.5417H48.75ZM19.1667 76.7708C17.5854 76.7708 16.2524 76.2288 15.1677 75.1448C14.0837 74.0601 13.5417 72.7271 13.5417 71.1458V29.4792C13.5417 27.8972 14.0837 26.5642 15.1677 25.4802C16.2524 24.3962 17.5854 23.8542 19.1667 23.8542H32.1875V15.5208H34.4792V23.8542H65.5208V15.5208H67.8125V23.8542H80.8333C82.4153 23.8542 83.7483 24.3962 84.8323 25.4802C85.9163 26.5642 86.4583 27.8972 86.4583 29.4792V71.1458C86.4583 72.7271 85.9163 74.0601 84.8323 75.1448C83.7483 76.2288 82.4153 76.7708 80.8333 76.7708H19.1667ZM19.4792 74.1667H48.75V69.1667H51.3542V74.1667H80.5208C81.3542 74.1667 82.1181 73.8195 82.8125 73.125C83.507 72.4306 83.8542 71.6667 83.8542 70.8333V29.7917C83.8542 28.9583 83.507 28.1945 82.8125 27.5C82.1181 26.8056 81.3542 26.4583 80.5208 26.4583H51.3542V31.4583H48.75V26.4583H19.4792C18.6458 26.4583 17.8819 26.8056 17.1875 27.5C16.4931 28.1945 16.1458 28.9583 16.1458 29.7917V70.8333C16.1458 71.6667 16.4931 72.4306 17.1875 73.125C17.8819 73.8195 18.6458 74.1667 19.4792 74.1667Z" fill="white"/>
</g>
</svg>
