<svg width="100" height="100" viewBox="0 0 100 100" fill="none" xmlns="http://www.w3.org/2000/svg">
<g id="list_alt_150dp_FFFFFF_FILL0_wght100_GRAD0_opsz48 1">
<path id="Vector" d="M33.3406 68.125C34.0997 68.125 34.7222 67.8795 35.2083 67.3885C35.6944 66.8976 35.9375 66.2726 35.9375 65.5135C35.9375 64.7545 35.692 64.1319 35.201 63.6458C34.7101 63.1597 34.0851 62.9167 33.326 62.9167C32.567 62.9167 31.9444 63.1621 31.4583 63.6531C30.9722 64.1441 30.7292 64.7691 30.7292 65.5281C30.7292 66.2871 30.9747 66.9097 31.4656 67.3958C31.9566 67.8819 32.5816 68.125 33.3406 68.125ZM33.3406 52.6042C34.0997 52.6042 34.7222 52.3587 35.2083 51.8677C35.6944 51.3767 35.9375 50.7517 35.9375 49.9927C35.9375 49.2337 35.692 48.6111 35.201 48.125C34.7101 47.6389 34.0851 47.3958 33.326 47.3958C32.567 47.3958 31.9444 47.6413 31.4583 48.1323C30.9722 48.6233 30.7292 49.2483 30.7292 50.0073C30.7292 50.7663 30.9747 51.3889 31.4656 51.875C31.9566 52.3611 32.5816 52.6042 33.3406 52.6042ZM33.3406 37.0833C34.0997 37.0833 34.7222 36.8378 35.2083 36.3469C35.6944 35.8559 35.9375 35.2309 35.9375 34.4719C35.9375 33.7128 35.692 33.0903 35.201 32.6042C34.7101 32.118 34.0851 31.875 33.326 31.875C32.567 31.875 31.9444 32.1205 31.4583 32.6114C30.9722 33.1024 30.7292 33.7274 30.7292 34.4865C30.7292 35.2455 30.9747 35.868 31.4656 36.3542C31.9566 36.8403 32.5816 37.0833 33.3406 37.0833ZM46.6667 66.6667H68.4375V64.375H46.6667V66.6667ZM46.6667 51.1458H68.4375V48.8542H46.6667V51.1458ZM46.6667 35.625H68.4375V33.3333H46.6667V35.625ZM23.5417 82.0833C21.9604 82.0833 20.6274 81.5413 19.5427 80.4573C18.4587 79.3726 17.9167 78.0396 17.9167 76.4583V23.5417C17.9167 21.9597 18.4587 20.6267 19.5427 19.5427C20.6274 18.4587 21.9604 17.9167 23.5417 17.9167H76.4583C78.0403 17.9167 79.3733 18.4587 80.4573 19.5427C81.5413 20.6267 82.0833 21.9597 82.0833 23.5417V76.4583C82.0833 78.0396 81.5413 79.3726 80.4573 80.4573C79.3733 81.5413 78.0403 82.0833 76.4583 82.0833H23.5417ZM23.5417 79.7917H76.4583C77.2917 79.7917 78.0556 79.4444 78.75 78.75C79.4444 78.0555 79.7917 77.2917 79.7917 76.4583V23.5417C79.7917 22.7083 79.4444 21.9444 78.75 21.25C78.0556 20.5555 77.2917 20.2083 76.4583 20.2083H23.5417C22.7083 20.2083 21.9444 20.5555 21.25 21.25C20.5556 21.9444 20.2083 22.7083 20.2083 23.5417V76.4583C20.2083 77.2917 20.5556 78.0555 21.25 78.75C21.9444 79.4444 22.7083 79.7917 23.5417 79.7917Z" fill="white"/>
</g>
</svg>
