<svg width="100" height="100" viewBox="0 0 100 100" fill="none" xmlns="http://www.w3.org/2000/svg">
<g id="video_call_150dp_FFFFFF_FILL0_wght100_GRAD0_opsz48 1">
<path id="Vector" d="M43.2292 63.9583H45.5208V51.0417H58.3333V48.75H45.5208V35.9375H43.2292V48.75H30.3125V51.0417H43.2292V63.9583ZM21.9792 77.9167C20.3979 77.9167 19.0649 77.3747 17.9802 76.2906C16.8962 75.2059 16.3542 73.8729 16.3542 72.2917V27.7083C16.3542 26.1264 16.8962 24.7934 17.9802 23.7094C19.0649 22.6254 20.3979 22.0833 21.9792 22.0833H66.5625C68.1444 22.0833 69.4774 22.6254 70.5614 23.7094C71.6455 24.7934 72.1875 26.1264 72.1875 27.7083V48.3333L83.6458 36.875V63.0208L72.1875 51.5625V72.2917C72.1875 73.8729 71.6455 75.2059 70.5614 76.2906C69.4774 77.3747 68.1444 77.9167 66.5625 77.9167H21.9792ZM21.9792 75.625H66.5625C67.5347 75.625 68.3333 75.3125 68.9583 74.6875C69.5833 74.0625 69.8958 73.2639 69.8958 72.2917V27.7083C69.8958 26.7361 69.5833 25.9375 68.9583 25.3125C68.3333 24.6875 67.5347 24.375 66.5625 24.375H21.9792C21.0069 24.375 20.2083 24.6875 19.5833 25.3125C18.9583 25.9375 18.6458 26.7361 18.6458 27.7083V72.2917C18.6458 73.2639 18.9583 74.0625 19.5833 74.6875C20.2083 75.3125 21.0069 75.625 21.9792 75.625Z" fill="white"/>
</g>
</svg>
