<svg width="88" height="95" viewBox="0 0 88 95" fill="none" xmlns="http://www.w3.org/2000/svg">
<g id="chat_apps_script_150dp_FFFFFF_FILL0_wght100_GRAD0_opsz48 1">
<path id="Vector" d="M52.9413 76.5937C52.6541 76.5937 52.4149 76.4885 52.2239 76.2781C52.0328 76.0669 51.9372 75.8031 51.9372 75.4864C51.9372 75.1691 52.0328 74.9114 52.2239 74.7135C52.4149 74.5156 52.6541 74.4167 52.9413 74.4167H71.6533L56.4099 62.8385C56.2273 62.6406 56.0904 62.3932 55.9991 62.0963C55.9078 61.7995 55.9535 61.5521 56.136 61.3542C56.2577 61.0903 56.4543 60.9253 56.7257 60.8594C56.9965 60.7934 57.2563 60.8264 57.5052 60.9583L72.8399 72.6354L66.3592 53.5364C66.2375 53.2726 66.2527 53.0087 66.4048 52.7448C66.557 52.4809 66.7699 52.283 67.0438 52.151C67.3176 52.0191 67.5914 52.0412 67.8653 52.2173C68.1391 52.3928 68.3369 52.6016 68.4586 52.8437L74.7568 71.7448L79.5945 52.3489C79.6517 52.091 79.7877 51.8782 80.0025 51.7107C80.2173 51.5424 80.4617 51.4913 80.7355 51.5573C81.0093 51.6233 81.2375 51.7717 81.4201 52.0026C81.6026 52.2335 81.6635 52.4809 81.6026 52.7448L75.5646 76.5937H52.9413ZM13.3266 72.9323V19.7917C13.3266 18.3568 13.8174 17.1072 14.7989 16.0431C15.7799 14.9796 16.9321 14.4479 18.2556 14.4479H62.0691C63.3926 14.4479 64.5452 14.9796 65.5267 16.0431C66.5077 17.1072 66.9981 18.3568 66.9981 19.7917V39.5833H65.7202C65.5985 39.5833 65.4768 39.5889 65.3551 39.6001C65.2334 39.6107 65.1117 39.5721 64.99 39.4844V19.7917C64.99 18.868 64.7162 18.1094 64.1685 17.5156C63.6208 16.9219 62.921 16.625 62.0691 16.625H18.2556C17.4037 16.625 16.7039 16.9219 16.1562 17.5156C15.6086 18.1094 15.3347 18.868 15.3347 19.7917V62.5417H43.7222C43.8031 62.6736 43.8387 62.8055 43.829 62.9375C43.8187 63.0694 43.8135 63.2014 43.8135 63.3333V64.7187H20.9027L13.3266 72.9323ZM26.1055 32.4583H54.2192V30.2812H26.1055V32.4583ZM26.1055 48.5885H43.2658V46.4114H26.1055V48.5885Z" fill="white"/>
</g>
</svg>
